<?xml version="1.0" encoding="utf-8"?>
<!-- Generator: Adobe Illustrator 26.5.0, SVG Export Plug-In . SVG Version: 6.00 Build 0)  -->
<svg version="1.1" id="Layer_3" xmlns="http://www.w3.org/2000/svg" xmlns:xlink="http://www.w3.org/1999/xlink" x="0px" y="0px"
	 viewBox="0 0 585 432" style="enable-background:new 0 0 585 432;" xml:space="preserve">
<g>
	<path d="M215.69,180H162c-9.94,0-18-8.06-18-18v0c0-9.94,8.06-18,18-18h207c19.88,0,36-16.12,36-36V72H144.31
		C104.37,72,72,104.37,72,144.31v35.39c0,39.93,32.37,72.31,72.31,72.31H198c9.94,0,18,8.06,18,18v0c0,9.94-8.06,18-18,18h-90
		c-19.88,0-36,16.12-36,36v36h143.69c39.93,0,72.31-32.37,72.31-72.31v-35.39C288,212.37,255.63,180,215.69,180z"/>
</g>
<path d="M422.15,214.02L525.48,360h-73.87c-7.91,0-13.19-2.64-17.59-9.23l-65.07-99.37v72.63c0,19.87-16.11,35.97-35.97,35.97H297
	V153.5h35.97c19.87,0,35.97,16.11,35.97,35.97v-0.51l68.59-107.29c4.4-6.6,9.67-9.67,17.59-9.67h63.32L422.15,214.02z"/>
</svg>
